<?xml version="1.0" encoding="UTF-8" standalone="no"?>
<svg
   width="16"
   viewBox="0 0 16 16"
   height="16"
   id="svg2"
   version="1.1"
   inkscape:version="1.1 (c4e8f9ed74, 2021-05-24)"
   sodipodi:docname="audio-volume-low-symbolic-red.svg"
   xmlns:inkscape="http://www.inkscape.org/namespaces/inkscape"
   xmlns:sodipodi="http://sodipodi.sourceforge.net/DTD/sodipodi-0.dtd"
   xmlns="http://www.w3.org/2000/svg"
   xmlns:svg="http://www.w3.org/2000/svg"
   xmlns:rdf="http://www.w3.org/1999/02/22-rdf-syntax-ns#"
   xmlns:cc="http://creativecommons.org/ns#"
   xmlns:dc="http://purl.org/dc/elements/1.1/">
  <metadata
     id="metadata30">
    <rdf:RDF>
      <cc:Work
         rdf:about="">
        <dc:format>image/svg+xml</dc:format>
        <dc:type
           rdf:resource="http://purl.org/dc/dcmitype/StillImage" />
      </cc:Work>
    </rdf:RDF>
  </metadata>
  <sodipodi:namedview
     pagecolor="#ffffff"
     bordercolor="#666666"
     borderopacity="1"
     objecttolerance="10"
     gridtolerance="10"
     guidetolerance="10"
     inkscape:pageopacity="0"
     inkscape:pageshadow="2"
     inkscape:window-width="1918"
     inkscape:window-height="1038"
     id="namedview28"
     showgrid="true"
     inkscape:zoom="38.125"
     inkscape:cx="8.0131148"
     inkscape:cy="7.9213115"
     inkscape:window-x="0"
     inkscape:window-y="0"
     inkscape:window-maximized="1"
     inkscape:current-layer="svg2"
     showguides="true"
     inkscape:snap-intersection-paths="false"
     inkscape:object-paths="false"
     inkscape:pagecheckerboard="0">
    <inkscape:grid
       type="xygrid"
       id="grid4158" />
  </sodipodi:namedview>
  <defs
     id="defs4" />
  <path
     d="M 6,2 2,6 2,10 6,14 6,9 7,8 6,7 Z"
     id="path18"
     inkscape:connector-curvature="0"
     style="fill:#bebebe"
     sodipodi:nodetypes="cccccccc" />
  <path
     d="M 1.300003,5 C 0.216589,5 0,6.163269 0,7.4 L 0,8.6 C 0,9.836747 0.24312,11 1.300003,11 L 3,11 3,5 Z"
     id="path20"
     inkscape:connector-curvature="0"
     style="fill:#bebebe"
     sodipodi:nodetypes="ssssccs" />
  <path
     style="opacity:0.3;fill:#bebebe;fill-opacity:1;fill-rule:evenodd;stroke:none;stroke-width:1px;stroke-linecap:butt;stroke-linejoin:miter;stroke-opacity:1"
     d="M 13.140638,1 11.726417,2.413582 C 12.808349,3.4955144 13.990412,5.4467621 14,8 c 0,2.551493 -1.192916,4.505751 -2.273583,5.586418 L 13.140638,15 C 14.595711,13.544927 16.019176,11 16,8 16.035061,5 14.595117,2.4544787 13.140638,1 Z"
     id="path4508"
     inkscape:connector-curvature="0"
     sodipodi:nodetypes="ccccccc" />
  <path
     style="opacity:0.3;fill:#bebebe;fill-opacity:1;fill-rule:evenodd;stroke:none;stroke-width:1px;stroke-linecap:butt;stroke-linejoin:miter;stroke-opacity:1"
     d="M 11,3.1156678 9.5897193,4.5261118 C 10.372347,5.3087395 11,6.5690611 11,8 11,9.4309388 10.372767,10.690952 9.5897193,11.474 L 11,12.884 C 12.275645,11.608355 13,9.854095 13,8 13,6.1543677 12.273068,4.3887355 11,3.1156678 Z"
     id="path4529"
     inkscape:connector-curvature="0"
     sodipodi:nodetypes="ccccccc" />
  <path
     style="opacity:1;fill:#bebebe;fill-opacity:1;fill-rule:evenodd;stroke:none;stroke-width:1px;stroke-linecap:butt;stroke-linejoin:miter;stroke-opacity:1"
     d="M 8.629,5 7.2094668,6.4096296 C 8,7.05621 8,7.805653 8,8 8,8.1932576 7.982199,8.9408674 7.209,9.59 L 8.6289063,11 C 9.8466375,9.952694 10,8.5984701 10,8 10,7.400497 9.854476,6.062891 8.629,5 Z"
     id="path4569"
     inkscape:connector-curvature="0"
     sodipodi:nodetypes="ccscccc" />
  <path
     style="fill:#ff0000;stroke-width:0.0262295"
     d="M 4.4984477,12.47222 3.0165676,10.990164 H 2.1062961 c -0.574077,0 -0.9616073,-0.01089 -1.0492674,-0.02949 C 0.52111756,10.846963 0.2101457,10.384567 0.06256819,9.4819672 0.01844518,9.2121062 4.418518e-4,7.1753115 0.03857235,6.7672131 0.1390134,5.6922256 0.46115454,5.1500695 1.0678172,5.0350182 c 0.073032,-0.01385 0.5413,-0.025182 1.0405954,-0.025182 H 3.0162224 L 4.5048325,3.5213978 5.9934426,2.0329595 V 4.5244241 7.0158888 L 6.484987,7.5079444 6.9765314,8 6.485121,8.4919213 5.993711,8.9838426 5.987021,11.46906 5.980331,13.954276 Z"
     id="path86" />
  <path
     style="fill:#ff0000;stroke-width:0.0262295"
     d="M 7.9270378,10.288845 7.2245675,9.5848645 7.3048345,9.5255205 C 7.4248173,9.4368136 7.6894771,9.0917561 7.7885967,8.8948021 8.1050852,8.26593 8.0803612,7.5604717 7.7207767,6.9596713 7.6723823,6.8788131 7.5442623,6.719693 7.4360656,6.6060711 L 7.2393443,6.3994859 7.9365076,5.7027594 8.633671,5.006033 8.8874907,5.2729771 C 9.3759263,5.7866686 9.6923618,6.3569306 9.8617844,7.0287935 9.961082,7.4225685 9.988822,7.7059237 9.9722707,8.157377 9.9361144,9.1435767 9.5588539,10.034169 8.8810903,10.733309 l -0.2515821,0.259516 z"
     id="path125" />
</svg>
