<?xml version="1.0" encoding="UTF-8" standalone="no"?>
<svg
   width="24"
   height="24"
   viewBox="0 0 24 24"
   fill="none"
   stroke="#ECEFF4"
   stroke-width="2"
   stroke-linecap="round"
   stroke-linejoin="round"
   class="feather feather-power"
   version="1.1"
   id="svg6"
   sodipodi:docname="power-red.svg"
   inkscape:version="1.1 (c4e8f9ed74, 2021-05-24)"
   xmlns:inkscape="http://www.inkscape.org/namespaces/inkscape"
   xmlns:sodipodi="http://sodipodi.sourceforge.net/DTD/sodipodi-0.dtd"
   xmlns="http://www.w3.org/2000/svg"
   xmlns:svg="http://www.w3.org/2000/svg">
  <defs
     id="defs10" />
  <sodipodi:namedview
     id="namedview8"
     pagecolor="#ffffff"
     bordercolor="#666666"
     borderopacity="1.0"
     inkscape:pageshadow="2"
     inkscape:pageopacity="0.0"
     inkscape:pagecheckerboard="0"
     showgrid="false"
     inkscape:zoom="27.5"
     inkscape:cx="11.981818"
     inkscape:cy="19.781818"
     inkscape:window-width="1918"
     inkscape:window-height="1038"
     inkscape:window-x="0"
     inkscape:window-y="0"
     inkscape:window-maximized="1"
     inkscape:current-layer="svg6" />
  <path
     d="M18.36 6.64a9 9 0 1 1-12.73 0"
     id="path2" />
  <line
     x1="12"
     y1="2"
     x2="12"
     y2="12"
     id="line4" />
  <path
     style="fill:#ff0000;stroke-width:0.0727273"
     d="M 11,22.942701 C 7.0541815,22.507036 3.8100618,19.923288 2.5396321,16.204523 2.2982072,15.497831 2.1360493,14.732125 2.0507622,13.896089 1.9981,13.379862 2.0284352,12.121613 2.1059465,11.607144 2.3994692,9.6589316 3.213123,7.8830141 4.477439,6.4310169 5.0381273,5.7870973 5.2108463,5.6743245 5.6363636,5.6743245 c 0.3033117,0 0.4917731,0.074418 0.6896971,0.2723422 0.1979237,0.1979239 0.2723422,0.3863854 0.2723422,0.6896969 0,0.3343637 -0.075785,0.4953861 -0.3893738,0.8273088 -1.3679543,1.4479331 -2.1352043,3.2648876 -2.2149962,5.2454186 -0.1480345,3.674391 2.2960882,7.022781 5.8423307,8.003854 3.9421204,1.090593 8.0358134,-0.917446 9.5780614,-4.698232 1.158382,-2.839745 0.588332,-6.0710577 -1.477027,-8.3724949 -0.391275,-0.4359994 -0.523675,-0.6466042 -0.556489,-0.8851949 -0.05166,-0.3756069 0.174776,-0.8003533 0.523908,-0.9827418 0.160587,-0.083892 0.239527,-0.1014152 0.453881,-0.1007555 0.357082,0.0011 0.520433,0.083148 0.851415,0.4276561 1.442313,1.5012537 2.372288,3.4363169 2.686375,5.589727 0.09716,0.666138 0.08873,2.049671 -0.01661,2.727273 -0.238504,1.534127 -0.759941,2.894425 -1.575118,4.109091 -0.429588,0.640112 -0.73216,1.009983 -1.24982,1.527806 -1.54067,1.541158 -3.43376,2.490844 -5.65494,2.836853 -0.453751,0.07068 -1.935704,0.102033 -2.4,0.05077 z"
     id="path86" />
  <path
     style="fill:#ff0000;stroke-width:0.0727273"
     d="m 11.727037,12.950019 c -0.18257,-0.0599 -0.317205,-0.148503 -0.451485,-0.297135 C 10.995351,12.342735 11.018182,12.844186 11.018182,7 c 0,-5.8446073 -0.02287,-5.3426879 0.257622,-5.6531629 C 11.491279,1.1083327 11.656885,1.0376225 12,1.0376225 c 0.343115,0 0.508721,0.07071 0.724196,0.3092146 C 13.004691,1.6573121 12.981818,1.1553927 12.981818,7 c 0,4.792114 -0.0051,5.247592 -0.0601,5.368711 -0.08426,0.185537 -0.307962,0.422781 -0.482871,0.512098 -0.160501,0.08196 -0.555793,0.120395 -0.711807,0.06921 z"
     id="path125" />
  <path
     style="fill:#ff0000;stroke-width:0.0727273"
     d="M 10.608484,22.837716 C 7.2906284,22.316461 4.55613,20.333489 3.1099289,17.4 2.5800527,16.325194 2.3162346,15.451683 2.1434634,14.2 2.057119,13.574457 2.0859061,12.020159 2.1951573,11.408894 2.5580035,9.3787593 3.5036417,7.4828406 4.8160423,6.154258 5.1555358,5.8105785 5.2852411,5.7452271 5.6258241,5.7462532 c 0.3088734,9.305e-4 0.4964599,0.073025 0.672333,0.2583973 0.1643345,0.1732102 0.2291156,0.3533876 0.2291156,0.6372461 0,0.3127308 -0.07007,0.457928 -0.394772,0.8180393 C 5.0074889,8.7076317 4.3686317,9.9761753 4.0685471,11.558215 3.9388455,12.241999 3.9086884,13.293632 3.9985254,14 c 0.366472,2.881487 2.2615186,5.367309 4.919163,6.452699 0.9107152,0.371939 1.8017786,0.559369 2.8123166,0.591555 1.385174,0.04412 2.576513,-0.208759 3.797268,-0.806021 0.83267,-0.407388 1.416767,-0.813242 2.062779,-1.4333 0.675703,-0.648555 1.193563,-1.361094 1.628933,-2.241297 0.802372,-1.622179 1.028451,-3.375323 0.668231,-5.181818 -0.275379,-1.38101 -0.902836,-2.6200597 -1.924329,-3.7999998 -0.409326,-0.4728177 -0.526854,-0.683742 -0.525725,-0.9435034 0.0014,-0.3173425 0.224519,-0.6753626 0.512492,-0.8222753 0.170683,-0.087076 0.591304,-0.09623 0.780938,-0.016996 0.284145,0.1187235 0.992708,0.9128391 1.519007,1.7024146 0.888504,1.3329715 1.481134,3.0002679 1.627333,4.5783139 0.05831,0.62934 0.02019,1.887347 -0.07428,2.451868 -0.516218,3.084596 -2.330773,5.667663 -5.039014,7.173172 -0.906839,0.504111 -2.03405,0.894031 -3.171864,1.097195 -0.643011,0.114814 -2.349738,0.135243 -2.983288,0.03571 z"
     id="path64" />
  <path
     style="fill:#ff0000;stroke-width:0.0727273"
     d="m 11.548435,12.793701 c -0.10836,-0.06654 -0.244392,-0.180076 -0.302292,-0.252313 -0.09871,-0.123156 -0.107511,-0.161668 -0.141208,-0.618181 -0.04208,-0.570103 -0.02088,-10.0540772 0.02291,-10.249769 0.03786,-0.1691863 0.356395,-0.4799501 0.55203,-0.5385639 0.373325,-0.1118507 0.708014,-0.033138 0.9774,0.2298666 0.172566,0.1684789 0.193289,0.2061064 0.221113,0.4014895 0.01689,0.1185734 0.0307,2.5310425 0.0307,5.3610425 0,5.7332933 0.02377,5.2158243 -0.252613,5.4999423 -0.192243,0.197624 -0.328377,0.255769 -0.638296,0.272626 -0.257623,0.01401 -0.283639,0.0081 -0.469747,-0.10614 z"
     id="path103" />
</svg>
